#!OML:ASF E:\emotionWalksFemale\Project 1\Capture day 1\Session 1\Female1.ASF
:FULLY-SPECIFIED
:DEGREES
3204
root 6.76518 15.1332 40.7081 0.105165 -193.076 361.807
lowerback 3.15181 -1.26416 5.41066
upperback -5.33777 -0.601996 4.3757
thorax -7.40941 -0.27078 1.60437
lowerneck -10.5576 4.19238 5.59046
upperneck 12.125 5.26508 -2.95507
head 5.62079 2.64944 -1.40891
rclavicle 3.77691e-015 -5.40694e-014
rhumerus -37.1866 5.2996 -70.0441
rradius 39.022
rwrist 18.5027
rhand -9.76066 -52.3695
rfingers 7.12502
rthumb -163.786 -621.711
lclavicle 3.77691e-015 -5.40694e-014
lhumerus -61.7735 -3.16632 79.5362
lradius 35.0142
lwrist -19.9104
lhand 9.96744 -28.9854
lfingers 7.12502
lthumb 35.0955 -2.45164
rfemur -4.47601 21.6025 20.4561
rtibia 26.8013
rfoot -26.5605 -31.6892
rtoes 6.64277
lfemur -4.33603 -0.299572 -20.6462
ltibia 28.3152
lfoot -33.3693 20.2656
ltoes -9.41627
3205
root 6.80351 15.143 40.7129 0.16774 -192.79 361.725
lowerback 3.03932 -1.19842 5.50631
upperback -5.37805 -0.518361 4.29369
thorax -7.38864 -0.237252 1.45521
lowerneck -10.4187 4.07389 5.49777
upperneck 11.9705 5.10622 -2.83976
head 5.53649 2.57603 -1.3753
rclavicle -2.10712e-014 -1.43125e-014
rhumerus -37.1371 5.27141 -70.2807
rradius 39.3036
rwrist 18.5027
rhand -9.50286 -52.714
rfingers 7.12502
rthumb -163.538 -622.035
lclavicle -2.10712e-014 -1.43125e-014
lhumerus -61.5554 -2.23838 78.4693
lradius 34.787
lwrist -20.0389
lhand 11.0121 -29.3227
lfingers 7.12502
lthumb 36.0856 -3.02729
rfemur -4.41214 21.1187 20.5119
rtibia 26.7844
rfoot -25.7193 -31.9677
rtoes 3.85221
lfemur -4.43125 -0.291166 -20.5396
ltibia 28.288
lfoot -33.147 20.1092
ltoes -9.98134
3206
root 6.8409 15.1436 40.7241 0.128474 -192.454 361.642
lowerback 3.02848 -1.14528 5.49392
upperback -5.35736 -0.447599 4.30693
thorax -7.35855 -0.199998 1.46833
lowerneck -10.4716 3.94511 5.24033
upperneck 11.9985 4.94804 -2.67371
head 5.53651 2.49889 -1.29408
rclavicle 2.80286e-014 3.49861e-014
rhumerus -36.921 5.28151 -70.3146
rradius 39.3711
rwrist 18.5533
rhand -9.5995 -53.2614
rfingers 7.12502
rthumb -163.631 -622.591
lclavicle 2.80286e-014 3.49861e-014
lhumerus -61.1504 -1.13388 77.5427
lradius 34.4316
lwrist -20.549
lhand 11.6731 -29.5794
lfingers 7.12502
lthumb 36.7115 -3.44088
rfemur -4.3829 20.779 20.6072
rtibia 26.8343
rfoot -27.4119 -31.3659
rtoes 8.83193
lfemur -4.45771 -0.49136 -20.4553
ltibia 28.2812
lfoot -33.0371 19.7822
ltoes -9.62593
3207
root 6.88842 15.1391 40.7316 0.0574326 -192.184 362.084
lowerback 3.15958 -1.08477 5.84939
upperback -5.35383 -0.298658 4.45316
thorax -7.43743 -0.133379 1.41257
lowerneck -10.4203 3.83036 5.04002
upperneck 12.1091 4.79972 -2.42047
head 5.54522 2.43846 -1.19496
rclavicle 2.50469e-014 -4.29375e-014
rhumerus -36.903 5.30649 -70.4078
rradius 39.4035
rwrist 18.4165
rhand -9.4618 -53.2869
rfingers 7.12502
rthumb -163.498 -622.605
lclavicle 2.50469e-014 -4.29375e-014
lhumerus -60.9614 -0.404232 76.9658
lradius 34.2249
lwrist -20.7856
lhand 11.1582 -29.5963
lfingers 7.12502
lthumb 36.2241 -3.33518
rfemur -4.15843 20.9811 21.4603
rtibia 26.8753
rfoot -28.1587 -31.558
rtoes 11.1376
lfemur -4.36187 -0.557467 -19.7354
ltibia 28.311
lfoot -32.8504 19.5741
ltoes -10.2549
3208
root 6.93028 15.1386 40.7393 0.0437728 -191.851 361.93
lowerback 3.03368 -1.06576 5.78536
upperback -5.35211 -0.295361 4.40354
thorax -7.36039 -0.129876 1.39306
lowerneck -10.4088 3.79556 4.85607
upperneck 12.1263 4.74625 -2.15122
head 5.53563 2.42351 -1.0856
rclavicle -1.31198e-014 9.54166e-015
rhumerus -36.7477 5.45089 -70.697
rradius 39.5393
rwrist 18.1983
rhand -9.39917 -52.7681
rfingers 7.12502
rthumb -163.438 -622.081
lclavicle -1.31198e-014 9.54166e-015
lhumerus -60.76 0.2583 76.6344
lradius 34.118
lwrist -20.8208
lhand 10.1423 -29.0826
lfingers 7.12502
lthumb 35.2613 -2.58796
rfemur -4.04642 20.8525 21.518
rtibia 26.8409
rfoot -28.0295 -31.8274
rtoes 10.0689
lfemur -4.47088 -0.434101 -19.6613
ltibia 28.3744
lfoot -32.5916 19.5391
ltoes -12.0502
3209
root 6.96975 15.1437 40.7423 -0.0406251 -191.508 362.018
lowerback 2.97124 -1.02728 5.95303
upperback -5.27427 -0.244105 4.39956
thorax -7.24216 -0.111394 1.28772
lowerneck -10.4974 3.67719 4.82588
upperneck 12.1374 4.5733 -2.06383
head 5.54516 2.34299 -1.0661
rclavicle -4.77083e-015 -6.36111e-015
rhumerus -36.4981 5.19217 -70.8516
rradius 39.427
rwrist 18.1562
rhand -9.39896 -52.6598
rfingers 7.12502
rthumb -163.438 -621.973
lclavicle -4.77083e-015 -6.36111e-015
lhumerus -60.4476 0.798135 76.3566
lradius 34.0588
lwrist -20.7256
lhand 9.83757 -28.5817
lfingers 7.12502
lthumb 34.9723 -2.01916
rfemur -3.75102 20.7337 21.8824
rtibia 26.7466
rfoot -26.4871 -32.6015
rtoes 5.2338
lfemur -4.4565 -0.194067 -19.313
ltibia 28.436
lfoot -32.4775 19.1724
ltoes -12.5454
3210
root 7.00838 15.1502 40.7461 -0.0167112 -191.088 362.234
lowerback 2.87611 -0.980694 6.24478
upperback -5.27799 -0.158615 4.40937
thorax -7.19489 -0.0790745 1.12639
lowerneck -10.4178 3.48969 4.88866
upperneck 12.0957 4.3163 -2.0771
head 5.51132 2.22069 -1.10322
rclavicle -4.17448e-015 3.49861e-014
rhumerus -36.4655 4.79778 -70.8791
rradius 39.1605
rwrist 17.9242
rhand -9.39047 -52.9168
rfingers 7.12502
rthumb -163.429 -622.229
lclavicle -4.17448e-015 3.49861e-014
lhumerus -60.1316 1.44008 75.735
lradius 34.0154
lwrist -20.3958
lhand 10.8148 -28.9378
lfingers 7.12502
lthumb 35.8988 -2.59646
rfemur -3.5932 20.4887 22.3422
rtibia 26.676
rfoot -28.0437 -32.2277
rtoes 9.77729
lfemur -4.50037 -0.241821 -18.8646
ltibia 28.4115
lfoot -32.3191 18.9699
ltoes -12.6636
3211
root 7.04981 15.1516 40.7519 -0.0495184 -190.672 362.234
lowerback 2.78176 -0.994842 6.29496
upperback -5.27436 -0.177445 4.42322
thorax -7.13776 -0.0872164 1.11309
lowerneck -10.2955 3.39105 4.79271
upperneck 12.018 4.20226 -2.06458
head 5.45982 2.16248 -1.09567
rclavicle 1.11319e-014 -3.81667e-014
rhumerus -36.4212 4.77508 -70.9557
rradius 39.0466
rwrist 17.6453
rhand -9.68666 -52.3169
rfingers 7.12502
rthumb -163.715 -621.653
lclavicle 1.11319e-014 -3.81667e-014
lhumerus -59.8544 2.11768 75.3459
lradius 33.918
lwrist -20.863
lhand 10.4481 -28.5958
lfingers 7.12502
lthumb 35.5513 -2.17025
rfemur -3.40624 20.2774 22.5823
rtibia 26.5816
rfoot -26.9953 -32.8252
rtoes 6.95418
lfemur -4.47766 -0.746344 -18.7253
ltibia 28.3647
lfoot -32.2805 19.1555
ltoes -12.7944
3212
root 7.09094 15.1472 40.7603 -0.146828 -190.238 362.219
lowerback 2.8243 -1.04248 6.34297
upperback -5.28104 -0.230963 4.42303
thorax -7.17241 -0.115751 1.092
lowerneck -10.1707 3.32119 4.7355
upperneck 11.9747 4.13155 -2.11673
head 5.42248 2.12336 -1.11069
rclavicle 1.98785e-015 -2.54444e-014
rhumerus -36.3933 5.07707 -71.4409
rradius 39.703
rwrist 18.2202
rhand -8.55887 -54.3177
rfingers 7.12502
rthumb -162.629 -623.562
lclavicle 1.98785e-015 -2.54444e-014
lhumerus -59.5608 2.84588 74.9149
lradius 33.8172
lwrist -21.3147
lhand 10.6365 -28.5762
lfingers 7.12502
lthumb 35.7298 -2.19373
rfemur -3.21394 20.2034 22.8272
rtibia 26.5163
rfoot -28.9568 -32.7057
rtoes 11.3823
lfemur -4.40505 -1.39536 -18.6273
ltibia 28.3194
lfoot -32.3288 19.2573
ltoes -12.7236
3213
root 7.13182 15.1468 40.7755 -0.0316137 -189.702 361.888
lowerback 2.72136 -1.07871 6.01484
upperback -5.42209 -0.3083 4.32433
thorax -7.25955 -0.142892 1.17882
lowerneck -9.98771 3.23778 4.80434
upperneck 11.9481 4.0273 -2.16387
head 5.38198 2.07521 -1.14776
rclavicle 4.27387e-014 -7.95139e-014
rhumerus -36.396 4.89631 -71.7363
rradius 39.7052
rwrist 18.2162
rhand -10.446 -49.7648
rfingers 7.12502
rthumb -164.446 -619.159
lclavicle 4.27387e-014 -7.95139e-014
lhumerus -59.3208 3.6267 74.4781
lradius 33.8046
lwrist -21.6495
lhand 10.336 -28.8031
lfingers 7.12502
lthumb 35.445 -2.35214
rfemur -3.37828 20.0384 22.5928
rtibia 26.5394
rfoot -29.2664 -33.0361
rtoes 11.8127
lfemur -4.68746 -1.62392 -18.7864
ltibia 28.2488
lfoot -31.9003 19.2248
ltoes -13.9714
